HIERARCHY
ROOT Hips
{
	OFFSET 0.000000 35.082581 0.000000
	CHANNELS 6 Xposition Yposition Zposition Xrotation Yrotation Zrotation 
	JOINT Spine
	{
		OFFSET 0.000000 6.876099 0.125700
		CHANNELS 3 Xrotation Yrotation Zrotation
		JOINT Spine1
		{
			OFFSET 0.000000 5.730043 0.104720
			CHANNELS 3 Xrotation Yrotation Zrotation
			JOINT Spine1_split
			{
				OFFSET 0.000000 5.730043 0.104720
				CHANNELS 3 Xrotation Yrotation Zrotation
				JOINT Spine2
				{
					OFFSET 0.000000 5.730043 0.104720
					CHANNELS 3 Xrotation Yrotation Zrotation
					JOINT Neck
					{
						OFFSET 0.000000 10.314075 0.188496
						CHANNELS 3 Xrotation Yrotation Zrotation
						JOINT Head
						{
							OFFSET 0.000000 7.643700 -2.377400
							CHANNELS 3 Xrotation Yrotation Zrotation
							JOINT HeadTop_End
							{
								OFFSET 0.000000 43.788605 -13.619600
								CHANNELS 3 Xrotation Yrotation Zrotation
								End Site
								{
									OFFSET 0.000000 0.000000 0.000000
								}
							}
						}
					}
					JOINT LeftShoulder
					{
						OFFSET 2.196100 4.412489 0.087492
						CHANNELS 3 Xrotation Yrotation Zrotation
						JOINT LeftShoulder_split
						{
							OFFSET 2.196100 4.412489 0.087492
							CHANNELS 3 Xrotation Yrotation Zrotation
							JOINT LeftArm
							{
								OFFSET 8.771219 -2.981674 -0.026999
								CHANNELS 3 Xrotation Yrotation Zrotation
								JOINT LeftForeArm
								{
									OFFSET 8.512804 0.000000 -0.000000
									CHANNELS 3 Xrotation Yrotation Zrotation
									JOINT LeftHand
									{
										OFFSET 18.484802 0.000000 -0.000000
										CHANNELS 3 Xrotation Yrotation Zrotation
										JOINT LeftHandThumb1
										{
											OFFSET 2.499420 -1.158070 2.653252
											CHANNELS 3 Xrotation Yrotation Zrotation
											JOINT LeftHandThumb2
											{
												OFFSET 2.370079 -1.368366 1.368366
												CHANNELS 3 Xrotation Yrotation Zrotation
												JOINT LeftHandThumb3
												{
													OFFSET 2.676727 -1.545410 1.545409
													CHANNELS 3 Xrotation Yrotation Zrotation
													JOINT LeftHandThumb4
													{
														OFFSET 1.692226 -0.977005 0.977007
														CHANNELS 3 Xrotation Yrotation Zrotation
														End Site
														{
															OFFSET 0.000000 0.000000 0.000000
														}
													}
												}
											}
										}
										JOINT LeftHandIndex1
										{
											OFFSET 7.924831 -0.457527 2.345128
											CHANNELS 3 Xrotation Yrotation Zrotation
											JOINT LeftHandIndex2
											{
												OFFSET 3.643303 0.000000 0.000000
												CHANNELS 3 Xrotation Yrotation Zrotation
												JOINT LeftHandIndex3
												{
													OFFSET 3.810799 0.000000 0.000000
													CHANNELS 3 Xrotation Yrotation Zrotation
													JOINT LeftHandIndex4
													{
														OFFSET 2.403702 0.000000 0.000000
														CHANNELS 3 Xrotation Yrotation Zrotation
														End Site
														{
															OFFSET 0.000000 0.000000 0.000000
														}
													}
												}
											}
										}
										JOINT LeftHandMiddle1
										{
											OFFSET 8.563995 0.000000 -0.000000
											CHANNELS 3 Xrotation Yrotation Zrotation
											JOINT LeftHandMiddle2
											{
												OFFSET 3.861618 0.000000 0.000000
												CHANNELS 3 Xrotation Yrotation Zrotation
												JOINT LeftHandMiddle3
												{
													OFFSET 3.701603 0.000000 0.000000
													CHANNELS 3 Xrotation Yrotation Zrotation
													JOINT LeftHandMiddle4
													{
														OFFSET 2.322544 0.000000 0.000000
														CHANNELS 3 Xrotation Yrotation Zrotation
														End Site
														{
															OFFSET 0.000000 0.000000 0.000000
														}
													}
												}
											}
										}
										JOINT LeftHandRing1
										{
											OFFSET 8.426460 -0.424637 -3.286992
											CHANNELS 3 Xrotation Yrotation Zrotation
											JOINT LeftHandRing2
											{
												OFFSET 3.126408 0.000000 0.000000
												CHANNELS 3 Xrotation Yrotation Zrotation
												JOINT LeftHandRing3
												{
													OFFSET 3.085026 0.000000 0.000000
													CHANNELS 3 Xrotation Yrotation Zrotation
													JOINT LeftHandRing4
													{
														OFFSET 1.644005 0.000000 0.000000
														CHANNELS 3 Xrotation Yrotation Zrotation
														End Site
														{
															OFFSET 0.000000 0.000000 0.000000
														}
													}
												}
											}
										}
									}
								}
							}
						}
					}
					JOINT RightShoulder
					{
						OFFSET -2.196100 4.412496 0.070690
						CHANNELS 3 Xrotation Yrotation Zrotation
						JOINT RightShoulder_split
						{
							OFFSET -2.196100 4.412496 0.070690
							CHANNELS 3 Xrotation Yrotation Zrotation
							JOINT RightArm
							{
								OFFSET -8.771282 -2.981682 -0.094208
								CHANNELS 3 Xrotation Yrotation Zrotation
								JOINT RightForeArm
								{
									OFFSET -8.494598 0.000000 0.000000
									CHANNELS 3 Xrotation Yrotation Zrotation
									JOINT RightHand
									{
										OFFSET -18.483803 0.000000 0.000001
										CHANNELS 3 Xrotation Yrotation Zrotation
										JOINT RightHandThumb1
										{
											OFFSET -2.527351 -1.008072 2.575253
											CHANNELS 3 Xrotation Yrotation Zrotation
											JOINT RightHandThumb2
											{
												OFFSET -2.321518 -1.340328 1.340329
												CHANNELS 3 Xrotation Yrotation Zrotation
												JOINT RightHandThumb3
												{
													OFFSET -2.657753 -1.534454 1.534455
													CHANNELS 3 Xrotation Yrotation Zrotation
													JOINT RightHandThumb4
													{
														OFFSET -1.807510 -1.043568 1.043567
														CHANNELS 3 Xrotation Yrotation Zrotation
														End Site
														{
															OFFSET 0.000000 0.000000 0.000000
														}
													}
												}
											}
										}
										JOINT RightHandIndex1
										{
											OFFSET -8.811420 0.015533 2.887987
											CHANNELS 3 Xrotation Yrotation Zrotation
											JOINT RightHandIndex2
											{
												OFFSET -3.537502 0.000000 0.000000
												CHANNELS 3 Xrotation Yrotation Zrotation
												JOINT RightHandIndex3
												{
													OFFSET -3.356201 0.000000 0.000000
													CHANNELS 3 Xrotation Yrotation Zrotation
													JOINT RightHandIndex4
													{
														OFFSET -1.933098 0.000000 0.000000
														CHANNELS 3 Xrotation Yrotation Zrotation
														End Site
														{
															OFFSET 0.000000 0.000000 0.000000
														}
													}
												}
											}
										}
										JOINT RightHandMiddle1
										{
											OFFSET -8.178135 0.000000 0.000000
											CHANNELS 3 Xrotation Yrotation Zrotation
											JOINT RightHandMiddle2
											{
												OFFSET -3.901302 0.000000 0.000000
												CHANNELS 3 Xrotation Yrotation Zrotation
												JOINT RightHandMiddle3
												{
													OFFSET -3.909599 0.000000 0.000000
													CHANNELS 3 Xrotation Yrotation Zrotation
													JOINT RightHandMiddle4
													{
														OFFSET -2.376003 0.000000 0.000000
														CHANNELS 3 Xrotation Yrotation Zrotation
														End Site
														{
															OFFSET 0.000000 0.000000 0.000000
														}
													}
												}
											}
										}
										JOINT RightHandRing1
										{
											OFFSET -7.559013 0.014137 -2.865403
											CHANNELS 3 Xrotation Yrotation Zrotation
											JOINT RightHandRing2
											{
												OFFSET -3.449306 0.000000 0.000000
												CHANNELS 3 Xrotation Yrotation Zrotation
												JOINT RightHandRing3
												{
													OFFSET -3.362106 0.000000 0.000000
													CHANNELS 3 Xrotation Yrotation Zrotation
													JOINT RightHandRing4
													{
														OFFSET -2.076401 0.000000 0.000000
														CHANNELS 3 Xrotation Yrotation Zrotation
														End Site
														{
															OFFSET 0.000000 0.000000 0.000000
														}
													}
												}
											}
										}
									}
								}
							}
						}
					}
				}
			}
		}
	}
	JOINT LeftUpLeg
	{
		OFFSET 10.205400 -3.823500 0.155100
		CHANNELS 3 Xrotation Yrotation Zrotation
		JOINT LeftLeg
		{
			OFFSET 0.708757 -12.982077 0.567790
			CHANNELS 3 Xrotation Yrotation Zrotation
			JOINT LeftFoot
			{
				OFFSET -0.708756 -10.717838 -2.184338
				CHANNELS 3 Xrotation Yrotation Zrotation
				JOINT LeftToeBase
				{
					OFFSET 0.108149 -7.191104 7.560241
					CHANNELS 3 Xrotation Yrotation Zrotation
					JOINT LeftToe_End
					{
						OFFSET 0.070230 0.081724 4.490308
						CHANNELS 3 Xrotation Yrotation Zrotation
						End Site
						{
							OFFSET 0.000000 0.000000 0.000000
						}
					}
				}
			}
		}
	}
	JOINT RightUpLeg
	{
		OFFSET -10.205400 -3.823500 0.005500
		CHANNELS 3 Xrotation Yrotation Zrotation
		JOINT RightLeg
		{
			OFFSET -0.708756 -12.982134 0.610632
			CHANNELS 3 Xrotation Yrotation Zrotation
			JOINT RightFoot
			{
				OFFSET 0.708754 -10.717769 -1.945823
				CHANNELS 3 Xrotation Yrotation Zrotation
				JOINT RightToeBase
				{
					OFFSET -0.108140 -7.191069 7.372968
					CHANNELS 3 Xrotation Yrotation Zrotation
					JOINT RightToe_End
					{
						OFFSET -0.070227 0.081735 4.479403
						CHANNELS 3 Xrotation Yrotation Zrotation
						End Site
						{
							OFFSET 0.000000 0.000000 0.000000
						}
					}
				}
			}
		}
	}
}
MOTION
Frames: 4
Frame Time: 0.016667
-0.121719 31.755619 -0.583436 5.045624 -15.483868 0.412942 23.106957 4.124535 -0.473497 3.699128 1.240174 -0.846330 0.000000 0.000000 0.000000 3.692593 1.312475 -0.857369 -12.698246 1.123399 2.281903 -14.088311 7.829664 -3.298854 0.000000 0.000000 -0.000000 7.811587 -20.950979 9.744744 0.000000 0.000000 0.000000 -33.643039 -3.124196 -85.445619 0.000014 -42.998319 -4.823170 -17.287077 -10.866520 -12.598994 -7.471942 1.860688 -7.166931 30.987004 27.310535 -4.510892 83.254644 13.297888 -10.940221 -0.000006 0.000001 -0.000002 -4.713146 11.342533 -75.220942 -0.816408 3.074003 -46.874632 -4.740625 0.379152 -78.699468 0.000000 -0.000000 0.000003 1.616639 16.582653 -84.688827 0.018009 0.022072 -72.884853 -1.302643 -0.091464 -19.943227 -0.000004 -0.000001 -0.000005 -6.443199 23.132667 -76.210172 0.013345 0.983457 -51.003608 6.785083 8.429318 -40.138727 0.000001 0.000001 0.000001 13.917698 27.239891 -23.496416 0.000000 0.000000 0.000000 -43.128570 -5.411287 84.812262 0.000057 58.104590 5.767208 -18.206875 16.096519 8.636282 9.347169 2.810564 -11.364520 16.169073 -43.266031 15.843560 32.491879 -44.566773 5.661159 0.000000 0.000002 -0.000000 17.076788 -0.396534 31.924342 -0.204404 -0.284221 112.811557 1.553154 -1.173026 33.344543 -0.000000 -0.000000 0.000001 9.205486 -5.035879 102.738087 0.014990 -0.019189 61.018506 1.871339 0.346201 31.443790 -0.000001 -0.000000 0.000003 5.569158 -8.935214 107.329101 0.547996 -0.005793 41.263700 0.739137 0.837860 51.122245 0.000000 -0.000000 -0.000002 -42.021373 -0.283802 14.029824 41.503013 2.339834 0.316412 -2.881682 1.611409 -9.667781 -0.359399 -1.379834 -0.238581 0.000000 -0.000000 -0.000000 -7.183575 -10.815155 -15.981239 33.417923 -3.221213 2.495161 -27.496402 -6.051417 15.079473 -1.225775 1.216119 -0.217475 -0.000000 0.000002 0.000000 
-0.111294 31.758232 -0.588521 5.030270 -15.742032 0.435949 23.106134 4.161485 -0.474021 3.696996 1.270047 -0.848467 0.000000 0.000000 0.000000 3.690626 1.342609 -0.860967 -12.863712 1.675243 2.090669 -13.987701 8.414726 -3.310302 0.000001 -0.000000 -0.000000 7.686556 -20.788217 9.327150 0.000000 0.000000 0.000000 -33.679649 -3.519083 -85.304698 0.000031 -43.357262 -4.333564 -17.231599 -10.328817 -12.796316 -7.471939 1.860680 -7.166935 30.987004 27.310544 -4.510890 83.254644 13.297882 -10.940224 -0.000004 0.000001 -0.000002 -4.711739 11.345199 -75.237484 -0.816407 3.074002 -46.874632 -4.740625 0.379158 -78.699461 -0.000001 0.000000 -0.000000 1.623059 16.576326 -84.598662 0.017981 0.022034 -72.792645 -1.301597 -0.093718 -19.851011 -0.000001 -0.000000 0.000001 -6.615200 23.030168 -76.196381 0.013389 0.979931 -50.778652 6.748270 8.455642 -39.913614 0.000002 -0.000000 0.000002 13.325463 26.974548 -22.684446 0.000000 0.000000 0.000000 -43.270690 -4.158127 84.402697 -0.000004 57.768032 5.603180 -18.560281 15.926138 8.602519 9.347166 2.810562 -11.364517 16.169074 -43.266031 15.843554 32.491862 -44.566779 5.661161 0.000001 0.000000 0.000003 17.076791 -0.396531 31.924338 -0.204403 -0.284221 112.811557 1.553154 -1.173028 33.344546 -0.000000 -0.000000 -0.000001 9.205486 -5.035881 102.738087 0.014990 -0.019190 61.018506 1.871339 0.346199 31.443790 0.000002 0.000000 0.000001 5.569156 -8.935215 107.329108 0.547991 -0.005793 41.263697 0.739137 0.837856 51.122245 0.000002 -0.000000 -0.000001 -41.867933 -0.304492 14.109033 41.592669 2.549122 0.273235 -3.039689 1.648183 -9.744431 -0.335583 -1.319978 -0.249754 0.000000 -0.000000 -0.000000 -7.466620 -10.818485 -16.080644 33.562293 -2.920555 2.433561 -27.444989 -6.009885 15.004513 -1.215954 1.216438 -0.216174 -0.000000 0.000005 0.000000 
-0.098918 31.758846 -0.597183 5.034770 -16.068676 0.471363 23.112730 4.216673 -0.470298 3.678787 1.304124 -0.850523 0.000000 0.000000 0.000000 3.672128 1.375556 -0.864477 -13.000397 2.224551 1.887411 -13.930412 9.001490 -3.326597 0.000000 -0.000000 -0.000000 7.549163 -20.634838 8.867796 0.000000 0.000000 0.000000 -33.753996 -3.967030 -84.994034 0.000013 -43.669655 -3.983634 -17.295453 -9.823964 -12.930747 -7.471942 1.860681 -7.166933 30.986994 27.310544 -4.510887 83.254637 13.297884 -10.940221 0.000003 0.000001 -0.000000 -4.710344 11.347917 -75.254375 -0.816401 3.074002 -46.874632 -4.740629 0.379149 -78.699468 -0.000000 0.000000 0.000000 1.629734 16.569759 -84.504863 0.017943 0.022025 -72.696633 -1.300430 -0.096039 -19.755098 -0.000001 0.000000 -0.000001 -6.793125 22.924048 -76.193397 0.013307 0.979870 -50.545220 6.709866 8.482877 -39.679291 -0.000001 -0.000000 0.000001 12.767503 26.735609 -21.908228 0.000000 0.000000 0.000000 -43.497763 -2.834393 83.951003 0.000039 57.335743 5.420056 -18.961490 15.774137 8.544115 9.347166 2.810564 -11.364519 16.169074 -43.266031 15.843563 32.491872 -44.566776 5.661156 -0.000006 -0.000001 0.000003 17.076791 -0.396532 31.924338 -0.204402 -0.284222 112.811557 1.553155 -1.173027 33.344546 0.000000 0.000001 0.000003 9.205485 -5.035881 102.738080 0.014992 -0.019189 61.018499 1.871339 0.346201 31.443797 -0.000002 -0.000000 -0.000001 5.569156 -8.935215 107.329094 0.547995 -0.005791 41.263700 0.739137 0.837858 51.122241 0.000001 0.000002 0.000001 -41.734935 -0.262271 14.210802 41.720937 2.757702 0.267657 -3.235035 1.693425 -9.843367 -0.283406 -1.290713 -0.296839 0.000000 0.000000 -0.000000 -7.831412 -10.707541 -16.216037 33.779793 -2.620596 2.450657 -27.396148 -5.954161 14.889597 -1.219799 1.216320 -0.216685 0.000000 0.000000 0.000000 
-0.085467 31.758781 -0.607810 5.039807 -16.438483 0.515076 23.117031 4.270753 -0.469304 3.668306 1.344952 -0.853239 0.000000 0.000000 0.000000 3.661479 1.415973 -0.869072 -13.136370 2.786676 1.677592 -13.885457 9.606061 -3.354277 0.000000 -0.000000 -0.000000 7.406729 -20.484207 8.380331 0.000000 0.000000 0.000000 -33.834445 -4.568837 -84.564114 0.000020 -43.951772 -3.707965 -17.514605 -9.378000 -12.968258 -7.471940 1.860684 -7.166938 30.987004 27.310535 -4.510889 83.254651 13.297890 -10.940228 -0.000000 0.000001 -0.000002 -4.708843 11.350793 -75.272175 -0.816407 3.074002 -46.874632 -4.740629 0.379149 -78.699468 0.000001 -0.000001 0.000002 1.633127 16.563858 -84.406351 0.017906 0.022021 -72.597165 -1.299221 -0.098468 -19.655688 0.000000 -0.000004 0.000003 -6.976405 22.814635 -76.199564 0.013205 0.979810 -50.303363 6.669940 8.510948 -39.436443 -0.000003 0.000000 0.000003 12.246208 26.525443 -21.177159 0.000000 0.000000 0.000000 -43.721369 -1.487034 83.438636 0.000051 56.901739 5.282890 -19.419555 15.653894 8.438913 9.347168 2.810561 -11.364522 16.169069 -43.266025 15.843556 32.491869 -44.566776 5.661165 -0.000003 -0.000000 0.000001 17.076795 -0.396533 31.924342 -0.204405 -0.284221 112.811550 1.553154 -1.173027 33.344546 -0.000000 -0.000000 -0.000001 9.205486 -5.035882 102.738080 0.014990 -0.019188 61.018499 1.871340 0.346199 31.443794 0.000000 0.000001 0.000000 5.569159 -8.935217 107.329108 0.547994 -0.005791 41.263697 0.739137 0.837862 51.122241 -0.000001 0.000002 0.000002 -41.562227 -0.278527 14.331147 41.861061 3.043668 0.204148 -3.451953 1.741558 -9.953006 -0.275278 -1.244933 -0.295511 0.000000 -0.000000 -0.000000 -8.295585 -10.704588 -16.380076 34.041338 -2.168747 2.405756 -27.346436 -5.888012 14.749548 -1.204870 1.211304 -0.209843 0.000000 -0.000003 -0.000000 
